<svg xmlns="http://www.w3.org/2000/svg" viewBox="0 0 24 24" fill="currentColor" width="24" height="24">
  <path d="M12.166.053C6.85.053 4.234 3.56 4.234 7.036c0 1.357.244 2.773.905 3.886-.11.205-.293.38-.56.38-.198 0-.418-.076-.657-.171-.14-.056-.289-.116-.46-.116-.564 0-1.01.456-.96 1.04.043.495.399.882.888.988.274.06.557.106.822.178.524.143.851.396.851.88 0 .298-.155.611-.392.88a6.667 6.667 0 0 1-1.06.89c-1.274.883-2.198 1.634-2.198 2.85 0 .555.198 1.079.589 1.467.958.951 2.642 1.113 3.85 1.113.331 0 .625-.015.854-.03.065-.004.127-.008.186-.008.481 0 .654.327.87.831.14.325.322.748.697 1.132.738.757 1.86.757 2.853.757.81 0 1.545-.156 2.13-.465a4.97 4.97 0 0 1 2.248-.505c.8 0 1.64.198 2.248.505.585.31 1.32.465 2.13.465.993 0 2.115 0 2.853-.757.375-.384.557-.807.697-1.132.216-.504.389-.831.87-.831.059 0 .121.004.186.008.229.015.523.03.854.03 1.208 0 2.892-.162 3.85-1.113.391-.388.589-.912.589-1.467 0-1.216-.924-1.967-2.198-2.85a6.68 6.68 0 0 1-1.06-.89c-.237-.269-.392-.582-.392-.88 0-.484.327-.737.851-.88.265-.072.548-.118.822-.178.489-.106.845-.493.888-.988.05-.584-.396-1.04-.96-1.04-.171 0-.32.06-.46.116-.239.095-.459.171-.657.171-.267 0-.45-.175-.56-.38.661-1.113.905-2.529.905-3.886C19.766 3.56 17.15.053 11.834.053h.332z"/>
</svg>
