<svg xmlns="http://www.w3.org/2000/svg" viewBox="0 0 24 24" fill="currentColor" width="24" height="24">
  <path d="M12.186 24h-.007c-3.581-.024-6.334-1.205-8.184-3.509C2.35 18.44 1.5 15.586 1.472 12.01v-.017c.028-3.579.879-6.436 2.525-8.486C5.845 1.205 8.6.024 12.18 0h.014c2.746.02 5.043.725 6.826 2.098 1.677 1.29 2.858 3.13 3.509 5.467l-2.04.569c-1.104-3.96-3.898-5.984-8.304-6.015-2.91.022-5.11.936-6.54 2.717C4.307 6.504 3.616 8.914 3.592 12c.024 3.088.715 5.5 2.053 7.166 1.432 1.783 3.632 2.698 6.542 2.72 2.37-.02 4.224-.665 5.51-1.918 1.515-1.479 1.76-3.458.734-5.006-.59-.89-1.55-1.517-2.77-1.837a8.51 8.51 0 0 1-.455 3.14c-.539 1.37-1.449 2.377-2.632 2.92-.896.411-1.9.548-2.848.395-1.09-.177-2.02-.757-2.621-1.632-.86-1.252-.912-2.853-.143-4.394.633-1.267 1.715-2.174 3.055-2.603a13.3 13.3 0 0 1 3.56-.586l.088.002c.478.006.934.031 1.368.074-.015-.913-.214-1.632-.6-2.139-.47-.62-1.2-.938-2.17-.954h-.045c-.749.01-1.46.238-2.054.658l-1.2-1.676c.895-.643 1.97-1.01 3.185-1.085l.13-.004h.045c1.59.02 2.82.58 3.664 1.656.74.944 1.14 2.177 1.19 3.672.59.163 1.12.38 1.59.659 1.7 1.006 2.665 2.582 2.713 4.426.055 2.098-.928 4.003-2.768 5.376-1.644 1.226-3.834 1.89-6.515 1.978zm-1.35-8.28c-.845.075-1.665.263-2.32.574-.888.422-1.456 1.003-1.74 1.572-.466.934-.37 1.89.259 2.57.364.392.864.62 1.418.648.64.028 1.254-.105 1.764-.384.74-.404 1.3-1.083 1.618-1.97a6.2 6.2 0 0 0 .345-2.432 10.4 10.4 0 0 0-1.344-.578z"/>
</svg>
